<svg width="136" height="104" viewBox="0 0 136 104" fill="none" xmlns="http://www.w3.org/2000/svg">
<g clip-path="url(#clip0_219_45383)">
<mask id="mask0_219_45383" style="mask-type:luminance" maskUnits="userSpaceOnUse" x="0" y="0" width="136" height="104">
<path d="M136 0H0V103.834H136V0Z" fill="white"/>
</mask>
<g mask="url(#mask0_219_45383)">
<path d="M122.174 9.69141H52.9127C52.5413 9.69141 52.2402 9.99247 52.2402 10.3638V103.16C52.2402 103.531 52.5413 103.832 52.9127 103.832H122.174C122.545 103.832 122.846 103.531 122.846 103.16V10.3638C122.846 9.99247 122.545 9.69141 122.174 9.69141Z" fill="white"/>
<path d="M122.174 103.832H52.9127C52.7344 103.832 52.5635 103.761 52.4374 103.635C52.3113 103.509 52.2404 103.338 52.2402 103.16V10.3638C52.2404 10.1855 52.3113 10.0146 52.4374 9.88859C52.5635 9.76253 52.7344 9.69162 52.9127 9.69141H122.174C122.352 9.69162 122.523 9.76253 122.649 9.88859C122.775 10.0146 122.846 10.1855 122.846 10.3638V103.16C122.846 103.338 122.775 103.509 122.649 103.635C122.523 103.761 122.352 103.832 122.174 103.832ZM52.9127 10.0276C52.8235 10.0277 52.7381 10.0631 52.675 10.1262C52.612 10.1892 52.5765 10.2747 52.5765 10.3638V103.16C52.5765 103.249 52.612 103.335 52.675 103.398C52.7381 103.461 52.8235 103.496 52.9127 103.496H122.174C122.263 103.496 122.348 103.461 122.411 103.398C122.474 103.335 122.51 103.249 122.51 103.16V10.3638C122.51 10.2747 122.474 10.1892 122.411 10.1262C122.348 10.0631 122.263 10.0277 122.174 10.0276H52.9127Z" fill="#CACACA"/>
<path d="M112.255 30.7678H62.8311C62.4967 30.7678 62.176 30.635 61.9396 30.3985C61.7031 30.1621 61.5703 29.8414 61.5703 29.507C61.5703 29.1726 61.7031 28.8519 61.9396 28.6154C62.176 28.379 62.4967 28.2461 62.8311 28.2461H112.255C112.589 28.2461 112.91 28.379 113.147 28.6154C113.383 28.8519 113.516 29.1726 113.516 29.507C113.516 29.8414 113.383 30.1621 113.147 30.3985C112.91 30.635 112.589 30.7678 112.255 30.7678Z" fill="#E6E6E6"/>
<path d="M112.255 38.9239H62.8311C62.4967 38.9239 62.176 38.7911 61.9396 38.5546C61.7031 38.3182 61.5703 37.9975 61.5703 37.6631C61.5703 37.3287 61.7031 37.008 61.9396 36.7716C62.176 36.5351 62.4967 36.4023 62.8311 36.4023H112.255C112.589 36.4023 112.91 36.5351 113.147 36.7716C113.383 37.008 113.516 37.3287 113.516 37.6631C113.516 37.9975 113.383 38.3182 113.147 38.5546C112.91 38.7911 112.589 38.9239 112.255 38.9239Z" fill="#E6E6E6"/>
<path d="M112.255 47.0763H62.8311C62.4967 47.0763 62.176 46.9435 61.9396 46.7071C61.7031 46.4706 61.5703 46.1499 61.5703 45.8155C61.5703 45.4811 61.7031 45.1604 61.9396 44.924C62.176 44.6875 62.4967 44.5547 62.8311 44.5547H112.255C112.589 44.5547 112.91 44.6875 113.147 44.924C113.383 45.1604 113.516 45.4811 113.516 45.8155C113.516 46.1499 113.383 46.4706 113.147 46.7071C112.91 46.9435 112.589 47.0763 112.255 47.0763Z" fill="#E6E6E6"/>
<path d="M112.255 55.2287H62.8311C62.4967 55.2287 62.176 55.0958 61.9396 54.8594C61.7031 54.6229 61.5703 54.3022 61.5703 53.9678C61.5703 53.6335 61.7031 53.3128 61.9396 53.0763C62.176 52.8399 62.4967 52.707 62.8311 52.707H112.255C112.589 52.707 112.91 52.8399 113.147 53.0763C113.383 53.3128 113.516 53.6335 113.516 53.9678C113.516 54.3022 113.383 54.6229 113.147 54.8594C112.91 55.0958 112.589 55.2287 112.255 55.2287Z" fill="#E6E6E6"/>
<path d="M112.255 63.381H62.8311C62.4967 63.381 62.176 63.2481 61.9396 63.0117C61.7031 62.7752 61.5703 62.4546 61.5703 62.1202C61.5703 61.7858 61.7031 61.4651 61.9396 61.2286C62.176 60.9922 62.4967 60.8594 62.8311 60.8594H112.255C112.589 60.8594 112.91 60.9922 113.147 61.2286C113.383 61.4651 113.516 61.7858 113.516 62.1202C113.516 62.4546 113.383 62.7752 113.147 63.0117C112.91 63.2481 112.589 63.381 112.255 63.381Z" fill="#E6E6E6"/>
<path d="M62.7631 46.4829C62.7329 46.5881 62.711 46.6956 62.6977 46.8042L53.9374 51.2259L51.941 49.9231L49.5811 52.6791L52.8912 55.3289C53.1586 55.543 53.4883 55.6645 53.8307 55.6753C54.173 55.6861 54.5097 55.5855 54.79 55.3887L63.927 48.9738C64.3138 49.1421 64.7426 49.1886 65.1565 49.1072C65.5703 49.0258 65.9496 48.8203 66.2438 48.5181C66.538 48.2159 66.7333 47.8313 66.8036 47.4154C66.8739 46.9995 66.8159 46.5721 66.6373 46.1899C66.4588 45.8078 66.1681 45.4891 65.804 45.2762C65.4399 45.0633 65.0196 44.9663 64.599 44.9981C64.1784 45.0299 63.7775 45.189 63.4495 45.4542C63.1216 45.7194 62.8822 46.0783 62.7631 46.4829Z" fill="#FFB6B6"/>
<path d="M53.6504 51.3921L50.7464 54.8257C50.6638 54.9234 50.5611 55.0022 50.4453 55.0566C50.3295 55.111 50.2033 55.1398 50.0753 55.1411C49.9474 55.1424 49.8207 55.116 49.7038 55.0639C49.587 55.0118 49.4827 54.9351 49.3982 54.839L46.4362 51.4734C45.9385 51.0479 45.6299 50.4423 45.5781 49.7896C45.5263 49.1369 45.7354 48.4902 46.1597 47.9915C46.584 47.4928 47.1888 47.1827 47.8414 47.1293C48.494 47.0759 49.1412 47.2835 49.6409 47.7066L53.4398 50.0604C53.5485 50.1278 53.6415 50.2179 53.7123 50.3244C53.7831 50.431 53.8301 50.5516 53.85 50.678C53.87 50.8044 53.8625 50.9336 53.8281 51.0568C53.7937 51.18 53.7331 51.2944 53.6504 51.3921Z" fill="#6C63FF"/>
<path d="M42.7162 101.727H44.7772L45.7576 93.7773H42.7158L42.7162 101.727Z" fill="#FFB6B6"/>
<path d="M42.1904 101.051H46.2493C46.9353 101.051 47.5933 101.323 48.0784 101.808C48.5634 102.293 48.836 102.951 48.836 103.637V103.721L42.1906 103.722L42.1904 101.051Z" fill="#2F2E41"/>
<path d="M42.252 79.5887L42.838 81.5645L50.7382 80.2443L49.8731 77.3281L42.252 79.5887Z" fill="#FFB6B6"/>
<path d="M42.747 78.8945L43.9011 82.7857C44.0961 83.4434 44.022 84.1518 43.6949 84.7548C43.3677 85.3577 42.8145 85.8061 42.1568 86.0011L42.0762 86.0251L40.1865 79.6539L42.747 78.8945Z" fill="#2F2E41"/>
<path d="M112.68 81.717H79.8902C79.4283 81.717 79.0537 81.1525 79.0537 80.4562C79.0537 79.7598 79.4283 79.1953 79.8902 79.1953H112.68C113.142 79.1953 113.516 79.7598 113.516 80.4562C113.516 81.1525 113.142 81.717 112.68 81.717Z" fill="#E6E6E6"/>
<path d="M112.68 88.9435H79.8902C79.4283 88.9435 79.0537 88.379 79.0537 87.6827C79.0537 86.9864 79.4283 86.4219 79.8902 86.4219H112.68C113.142 86.4219 113.516 86.9864 113.516 87.6827C113.516 88.379 113.142 88.9435 112.68 88.9435Z" fill="#E6E6E6"/>
<path d="M123.693 19.386C129.046 19.386 133.386 15.0463 133.386 9.69298C133.386 4.3397 129.046 0 123.693 0C118.34 0 114 4.3397 114 9.69298C114 15.0463 118.34 19.386 123.693 19.386Z" fill="#6C63FF"/>
<path fill-rule="evenodd" clip-rule="evenodd" d="M129.116 9.40909L130 10.3064L125.876 14.5L123.684 12.2727L124.568 11.3755L125.876 12.6991L129.116 9.40909ZM123.053 10.3636C123.255 10.3636 123.438 10.3764 123.684 10.4018L121.789 12.2727L123.684 14.1818H118V12.9091C118 11.2164 121.366 10.3636 123.053 10.3636ZM123.053 4C124.448 4 125.579 5.13909 125.579 6.54545C125.579 7.95182 124.448 9.09091 123.053 9.09091C121.657 9.09091 120.526 7.95182 120.526 6.54545C120.526 5.13909 121.657 4 123.053 4Z" fill="white"/>
<path d="M63.5439 75.5203C63.2464 76.0161 62.8265 76.427 62.3244 76.7138C61.8224 77.0006 61.2551 77.1535 60.6769 77.1578L48.29 81.1234L47.7236 77.8383L55.2241 73.7686L47.9573 68.5349L53.2813 62.3047L62.9513 71.3176C63.5164 71.8443 63.8835 72.5491 63.9914 73.314C64.0992 74.079 63.9413 74.8578 63.5439 75.5203Z" fill="#2F2E41"/>
<path d="M45.5783 97.9861H42.5199C39.7738 79.1631 36.9787 60.2877 45.2385 53.2422L54.9803 54.8282L53.7343 63.0973L48.2971 69.3274L45.5783 97.9861Z" fill="#2F2E41"/>
<path d="M54.3841 58.2418C50.261 61.0514 44.935 60.3908 42.7119 56.2044C45.906 50.8249 46.5784 46.9584 44.0072 45.1932C43.5952 43.724 43.7489 42.1537 44.4382 40.7923C45.1274 39.4309 46.3019 38.3774 47.73 37.8398L52.6008 39.8788C56.7362 43.25 57.5507 46.9017 55.9991 50.7532L54.3841 58.2418Z" fill="#6C63FF"/>
<path d="M136 103.496H0V103.832H136V103.496Z" fill="#CACACA"/>
<path d="M25.7781 95.8302C26.4035 96.05 27.0751 96.1052 27.728 95.9902C28.3809 95.8752 28.9932 95.5939 29.5059 95.1735C30.8116 94.0776 31.2206 92.2721 31.554 90.601L32.5391 85.6562L30.4767 87.076C28.9935 88.0974 27.4767 89.1514 26.4497 90.6307C25.4227 92.1101 24.9744 94.1296 25.7996 95.7303" fill="#E6E6E6"/>
<path d="M26.0968 102.163C25.8366 100.271 25.5701 98.3557 25.7525 96.4438C25.9143 94.7459 26.4322 93.0879 27.4867 91.7282C28.0465 91.0079 28.7275 90.3907 29.4993 89.9044C29.7011 89.7773 29.886 90.0964 29.6854 90.2228C28.35 91.0668 27.3171 92.3131 26.7356 93.782C26.0935 95.4155 25.9902 97.1961 26.101 98.9315C26.1683 99.9808 26.3098 101.023 26.4527 102.065C26.464 102.112 26.457 102.161 26.4331 102.203C26.4092 102.245 26.3702 102.277 26.3239 102.291C26.2768 102.304 26.2265 102.298 26.184 102.274C26.1415 102.25 26.1099 102.21 26.0968 102.163Z" fill="#F2F2F2"/>
<path d="M9.55273 99.3358C9.87129 99.7121 10.2814 100 10.7435 100.172C11.2056 100.343 11.7042 100.393 12.1912 100.316C13.4409 100.104 14.3827 99.1003 15.2251 98.1532L17.7173 95.3516L15.8598 95.487C14.5242 95.5843 13.1546 95.69 11.9394 96.2529C10.7241 96.8157 9.67697 97.9425 9.60434 99.2798" fill="#E6E6E6"/>
<path d="M7.41374 103.243C7.85166 102.189 8.29328 101.12 8.96521 100.189C9.54159 99.3458 10.3463 98.684 11.2851 98.2813C11.7916 98.0791 12.3295 97.9667 12.8746 97.9493C13.0168 97.9446 13.016 98.1651 12.8746 98.1699C11.9305 98.2013 11.0209 98.5318 10.2768 99.1136C9.45155 99.762 8.85997 100.649 8.3923 101.578C8.10954 102.139 7.86746 102.72 7.62639 103.3C7.61798 103.327 7.59943 103.351 7.57448 103.365C7.54953 103.38 7.52003 103.384 7.4919 103.378C7.46373 103.37 7.43973 103.352 7.42509 103.326C7.41046 103.301 7.40638 103.271 7.41374 103.243Z" fill="#F2F2F2"/>
<path d="M27.9658 99.128C28.2341 99.5357 28.6028 99.8674 29.0365 100.091C29.4702 100.315 29.9542 100.423 30.4419 100.406C31.6953 100.346 32.7403 99.4713 33.6808 98.6405L36.463 96.1841L34.6217 96.096C33.2976 96.0326 31.9392 95.9734 30.6779 96.3818C29.4166 96.7901 28.2535 97.7729 28.0228 99.0784" fill="#E6E6E6"/>
<path d="M25.3631 103.25C26.6128 101.039 28.0626 98.5811 30.6528 97.7955C31.373 97.5778 32.1282 97.4998 32.8777 97.5657C33.1139 97.586 33.0549 97.9501 32.8192 97.9298C31.5629 97.8255 30.309 98.1573 29.2686 98.8692C28.2675 99.5507 27.488 100.498 26.8282 101.503C26.4247 102.118 26.0621 102.76 25.7 103.4C25.5843 103.605 25.2461 103.457 25.3631 103.25Z" fill="#F2F2F2"/>
<path d="M132.743 99.8011C132.26 99.9707 131.742 100.013 131.238 99.9245C130.734 99.8358 130.262 99.6188 129.866 99.2944C128.858 98.4486 128.542 97.0553 128.286 95.7653L127.525 91.9492L129.117 93.0453C130.262 93.8335 131.432 94.6468 132.225 95.7885C133.017 96.9301 133.363 98.4886 132.727 99.7239" fill="#E6E6E6"/>
<path d="M132.303 103.422C132.443 102.403 132.587 101.37 132.489 100.339C132.425 99.4197 132.101 98.5377 131.554 97.7962C131.252 97.4077 130.885 97.0749 130.468 96.8127C130.36 96.7443 130.26 96.9163 130.367 96.9844C131.088 97.4395 131.645 98.1116 131.958 98.9037C132.304 99.7845 132.36 100.745 132.3 101.68C132.264 102.246 132.188 102.808 132.111 103.37C132.105 103.395 132.109 103.422 132.121 103.444C132.134 103.467 132.155 103.484 132.18 103.492C132.206 103.498 132.233 103.495 132.255 103.482C132.278 103.469 132.295 103.448 132.303 103.422Z" fill="#F2F2F2"/>
<path d="M39.1647 61.5604C39.4218 61.5007 39.6628 61.3853 39.8705 61.2224C40.0783 61.0594 40.2478 60.8529 40.3671 60.6174C40.4864 60.3819 40.5527 60.1231 40.5611 59.8592C40.5696 59.5953 40.5201 59.3328 40.4162 59.0901L47.0737 44.0491L43.2652 43.0898L37.9187 58.1763C37.5225 58.378 37.2142 58.718 37.052 59.1318C36.8898 59.5457 36.885 60.0047 37.0386 60.4218C37.1922 60.8389 37.4934 61.1852 37.8853 61.3951C38.2771 61.6049 38.7323 61.6637 39.1647 61.5604Z" fill="#FFB6B6"/>
<path d="M46.1724 46.737L42.4684 45.0032C42.363 44.9539 42.2695 44.8824 42.1942 44.7937C42.1189 44.705 42.0637 44.6011 42.0322 44.489C42.0007 44.377 41.9937 44.2595 42.0117 44.1446C42.0297 44.0296 42.0723 43.9199 42.1365 43.8228L44.3876 40.4232C44.6433 39.8858 45.1015 39.4717 45.662 39.2716C46.2224 39.0714 46.8394 39.1016 47.3776 39.3555C47.9159 39.6093 48.3316 40.0662 48.5336 40.626C48.7356 41.1858 48.7075 41.8028 48.4555 42.3419L47.2915 46.2358C47.2581 46.3473 47.2011 46.4503 47.1244 46.5377C47.0476 46.6252 46.9529 46.6951 46.8467 46.7427C46.7405 46.7902 46.6253 46.8144 46.509 46.8134C46.3926 46.8124 46.2778 46.7864 46.1724 46.737Z" fill="#6C63FF"/>
<path d="M54.3886 36.7315H44.6383C44.4378 36.7313 44.2455 36.6515 44.1037 36.5097C43.9618 36.3678 43.8821 36.1756 43.8818 35.975V31.7723C43.8818 30.2787 44.4752 28.8462 45.5313 27.7901C46.5874 26.734 48.0199 26.1406 49.5135 26.1406C51.0071 26.1406 52.4395 26.734 53.4957 27.7901C54.5518 28.8462 55.1451 30.2787 55.1451 31.7723V35.975C55.1449 36.1756 55.0651 36.3678 54.9233 36.5097C54.7815 36.6515 54.5892 36.7313 54.3886 36.7315Z" fill="#2F2E41"/>
<path d="M50.9024 36.668C53.1827 36.668 55.0313 34.8195 55.0313 32.5391C55.0313 30.2588 53.1827 28.4102 50.9024 28.4102C48.622 28.4102 46.7734 30.2588 46.7734 32.5391C46.7734 34.8195 48.622 36.668 50.9024 36.668Z" fill="#FFB6B6"/>
<path d="M56.4769 32.1913H50.5148L50.4536 31.3353L50.148 32.1913H49.2299L49.1088 30.4947L48.5029 32.1913H46.7266V32.1072C46.7279 30.9261 47.1977 29.7938 48.0328 28.9586C48.868 28.1234 50.0003 27.6537 51.1814 27.6523H52.022C53.2031 27.6537 54.3354 28.1234 55.1706 28.9586C56.0058 29.7938 56.4755 30.9261 56.4769 32.1072V32.1913Z" fill="#2F2E41"/>
</g>
</g>
<defs>
<clipPath id="clip0_219_45383">
<rect width="136" height="104" fill="white"/>
</clipPath>
</defs>
</svg>
